# Exported from Wings 3D 2.2.5
mtllib ring.mtl
o Cylinder1
#144 vertices, 144 faces
v 1.00000000 8.6000000e-2 0.0000000e+0
v 0.98480775 8.6000000e-2 0.17364818
v 0.93969262 8.6000000e-2 0.34202014
v 0.86602540 8.6000000e-2 0.50000000
v 0.76604444 8.6000000e-2 0.64278761
v 0.64278761 8.6000000e-2 0.76604444
v 0.50000000 8.6000000e-2 0.86602540
v 0.34202014 8.6000000e-2 0.93969262
v 0.17364818 8.6000000e-2 0.98480775
v 6.1232340e-17 8.6000000e-2 1.00000000
v -0.17364818 8.6000000e-2 0.98480775
v -0.34202014 8.6000000e-2 0.93969262
v -0.50000000 8.6000000e-2 0.86602540
v -0.64278761 8.6000000e-2 0.76604444
v -0.76604444 8.6000000e-2 0.64278761
v -0.86602540 8.6000000e-2 0.50000000
v -0.93969262 8.6000000e-2 0.34202014
v -0.98480775 8.6000000e-2 0.17364818
v -1.00000000 8.6000000e-2 1.2246468e-16
v -0.98480775 8.6000000e-2 -0.17364818
v -0.93969262 8.6000000e-2 -0.34202014
v -0.86602540 8.6000000e-2 -0.50000000
v -0.76604444 8.6000000e-2 -0.64278761
v -0.64278761 8.6000000e-2 -0.76604444
v -0.50000000 8.6000000e-2 -0.86602540
v -0.34202014 8.6000000e-2 -0.93969262
v -0.17364818 8.6000000e-2 -0.98480775
v -1.8369702e-16 8.6000000e-2 -1.00000000
v 0.17364818 8.6000000e-2 -0.98480775
v 0.34202014 8.6000000e-2 -0.93969262
v 0.50000000 8.6000000e-2 -0.86602540
v 0.64278761 8.6000000e-2 -0.76604444
v 0.76604444 8.6000000e-2 -0.64278761
v 0.86602540 8.6000000e-2 -0.50000000
v 0.93969262 8.6000000e-2 -0.34202014
v 0.98480775 8.6000000e-2 -0.17364818
v 1.00000000 -8.6000000e-2 0.0000000e+0
v 0.98480775 -8.6000000e-2 0.17364818
v 0.93969262 -8.6000000e-2 0.34202014
v 0.86602540 -8.6000000e-2 0.50000000
v 0.76604444 -8.6000000e-2 0.64278761
v 0.64278761 -8.6000000e-2 0.76604444
v 0.50000000 -8.6000000e-2 0.86602540
v 0.34202014 -8.6000000e-2 0.93969262
v 0.17364818 -8.6000000e-2 0.98480775
v 6.1232340e-17 -8.6000000e-2 1.00000000
v -0.17364818 -8.6000000e-2 0.98480775
v -0.34202014 -8.6000000e-2 0.93969262
v -0.50000000 -8.6000000e-2 0.86602540
v -0.64278761 -8.6000000e-2 0.76604444
v -0.76604444 -8.6000000e-2 0.64278761
v -0.86602540 -8.6000000e-2 0.50000000
v -0.93969262 -8.6000000e-2 0.34202014
v -0.98480775 -8.6000000e-2 0.17364818
v -1.00000000 -8.6000000e-2 1.2246468e-16
v -0.98480775 -8.6000000e-2 -0.17364818
v -0.93969262 -8.6000000e-2 -0.34202014
v -0.86602540 -8.6000000e-2 -0.50000000
v -0.76604444 -8.6000000e-2 -0.64278761
v -0.64278761 -8.6000000e-2 -0.76604444
v -0.50000000 -8.6000000e-2 -0.86602540
v -0.34202014 -8.6000000e-2 -0.93969262
v -0.17364818 -8.6000000e-2 -0.98480775
v -1.8369702e-16 -8.6000000e-2 -1.00000000
v 0.17364818 -8.6000000e-2 -0.98480775
v 0.34202014 -8.6000000e-2 -0.93969262
v 0.50000000 -8.6000000e-2 -0.86602540
v 0.64278761 -8.6000000e-2 -0.76604444
v 0.76604444 -8.6000000e-2 -0.64278761
v 0.86602540 -8.6000000e-2 -0.50000000
v 0.93969262 -8.6000000e-2 -0.34202014
v 0.98480775 -8.6000000e-2 -0.17364818
v 0.80548202 8.6000000e-2 -2.7097908e-18
v 0.79324494 8.6000000e-2 0.13987049
v 0.75690551 8.6000000e-2 0.27549108
v 0.69756789 8.6000000e-2 0.40274101
v 0.61703503 8.6000000e-2 0.51775386
v 0.51775386 8.6000000e-2 0.61703503
v 0.40274101 8.6000000e-2 0.69756789
v 0.27549108 8.6000000e-2 0.75690551
v 0.13987049 8.6000000e-2 0.79324494
v 6.1232340e-17 8.6000000e-2 0.80548202
v -0.13987049 8.6000000e-2 0.79324494
v -0.27549108 8.6000000e-2 0.75690551
v -0.40274101 8.6000000e-2 0.69756789
v -0.51775386 8.6000000e-2 0.61703503
v -0.61703503 8.6000000e-2 0.51775386
v -0.69756789 8.6000000e-2 0.40274101
v -0.75690551 8.6000000e-2 0.27549108
v -0.79324494 8.6000000e-2 0.13987049
v -0.80548202 8.6000000e-2 8.1817818e-17
v -0.79324494 8.6000000e-2 -0.13987049
v -0.75690551 8.6000000e-2 -0.27549108
v -0.69756789 8.6000000e-2 -0.40274101
v -0.61703503 8.6000000e-2 -0.51775386
v -0.51775386 8.6000000e-2 -0.61703503
v -0.40274101 8.6000000e-2 -0.69756789
v -0.27549108 8.6000000e-2 -0.75690551
v -0.13987049 8.6000000e-2 -0.79324494
v -1.2001694e-16 8.6000000e-2 -0.80548202
v 0.13987049 8.6000000e-2 -0.79324494
v 0.27549108 8.6000000e-2 -0.75690551
v 0.40274101 8.6000000e-2 -0.69756789
v 0.51775386 8.6000000e-2 -0.61703503
v 0.61703503 8.6000000e-2 -0.51775386
v 0.69756789 8.6000000e-2 -0.40274101
v 0.75690551 8.6000000e-2 -0.27549108
v 0.79324494 8.6000000e-2 -0.13987049
v 0.80548202 -8.6000000e-2 -2.7097908e-18
v 0.79324494 -8.6000000e-2 0.13987049
v 0.75690551 -8.6000000e-2 0.27549108
v 0.69756789 -8.6000000e-2 0.40274101
v 0.61703503 -8.6000000e-2 0.51775386
v 0.51775386 -8.6000000e-2 0.61703503
v 0.40274101 -8.6000000e-2 0.69756789
v 0.27549108 -8.6000000e-2 0.75690551
v 0.13987049 -8.6000000e-2 0.79324494
v 6.1232340e-17 -8.6000000e-2 0.80548202
v -0.13987049 -8.6000000e-2 0.79324494
v -0.27549108 -8.6000000e-2 0.75690551
v -0.40274101 -8.6000000e-2 0.69756789
v -0.51775386 -8.6000000e-2 0.61703503
v -0.61703503 -8.6000000e-2 0.51775386
v -0.69756789 -8.6000000e-2 0.40274101
v -0.75690551 -8.6000000e-2 0.27549108
v -0.79324494 -8.6000000e-2 0.13987049
v -0.80548202 -8.6000000e-2 8.1817818e-17
v -0.79324494 -8.6000000e-2 -0.13987049
v -0.75690551 -8.6000000e-2 -0.27549108
v -0.69756789 -8.6000000e-2 -0.40274101
v -0.61703503 -8.6000000e-2 -0.51775386
v -0.51775386 -8.6000000e-2 -0.61703503
v -0.40274101 -8.6000000e-2 -0.69756789
v -0.27549108 -8.6000000e-2 -0.75690551
v -0.13987049 -8.6000000e-2 -0.79324494
v -1.2001694e-16 -8.6000000e-2 -0.80548202
v 0.13987049 -8.6000000e-2 -0.79324494
v 0.27549108 -8.6000000e-2 -0.75690551
v 0.40274101 -8.6000000e-2 -0.69756789
v 0.51775386 -8.6000000e-2 -0.61703503
v 0.61703503 -8.6000000e-2 -0.51775386
v 0.69756789 -8.6000000e-2 -0.40274101
v 0.75690551 -8.6000000e-2 -0.27549108
v 0.79324494 -8.6000000e-2 -0.13987049
vn 0.70575756 0.70845344 9.8317665e-18
vn 0.69503551 0.70845344 0.12255351
vn 0.66319517 0.70845344 0.24138330
vn 0.61120397 0.70845344 0.35287878
vn 0.54064165 0.70845344 0.45365221
vn 0.45365221 0.70845344 0.54064165
vn 0.35287878 0.70845344 0.61120397
vn 0.24138330 0.70845344 0.66319517
vn 0.12255351 0.70845344 0.69503551
vn 0.0000000e+0 0.70845344 0.70575756
vn -0.12255351 0.70845344 0.69503551
vn -0.24138330 0.70845344 0.66319517
vn -0.35287878 0.70845344 0.61120397
vn -0.45365221 0.70845344 0.54064165
vn -0.54064165 0.70845344 0.45365221
vn -0.61120397 0.70845344 0.35287878
vn -0.66319517 0.70845344 0.24138330
vn -0.69503551 0.70845344 0.12255351
vn -0.70575756 0.70845344 1.4747650e-16
vn -0.69503551 0.70845344 -0.12255351
vn -0.66319517 0.70845344 -0.24138330
vn -0.61120397 0.70845344 -0.35287878
vn -0.54064165 0.70845344 -0.45365221
vn -0.45365221 0.70845344 -0.54064165
vn -0.35287878 0.70845344 -0.61120397
vn -0.24138330 0.70845344 -0.66319517
vn -0.12255351 0.70845344 -0.69503551
vn -2.3104651e-16 0.70845344 -0.70575756
vn 0.12255351 0.70845344 -0.69503551
vn 0.24138330 0.70845344 -0.66319517
vn 0.35287878 0.70845344 -0.61120397
vn 0.45365221 0.70845344 -0.54064165
vn 0.54064165 0.70845344 -0.45365221
vn 0.61120397 0.70845344 -0.35287878
vn 0.66319517 0.70845344 -0.24138330
vn 0.69503551 0.70845344 -0.12255351
vn 0.70575756 -0.70845344 9.8317665e-18
vn 0.69503551 -0.70845344 0.12255351
vn 0.66319517 -0.70845344 0.24138330
vn 0.61120397 -0.70845344 0.35287878
vn 0.54064165 -0.70845344 0.45365221
vn 0.45365221 -0.70845344 0.54064165
vn 0.35287878 -0.70845344 0.61120397
vn 0.24138330 -0.70845344 0.66319517
vn 0.12255351 -0.70845344 0.69503551
vn 0.0000000e+0 -0.70845344 0.70575756
vn -0.12255351 -0.70845344 0.69503551
vn -0.24138330 -0.70845344 0.66319517
vn -0.35287878 -0.70845344 0.61120397
vn -0.45365221 -0.70845344 0.54064165
vn -0.54064165 -0.70845344 0.45365221
vn -0.61120397 -0.70845344 0.35287878
vn -0.66319517 -0.70845344 0.24138330
vn -0.69503551 -0.70845344 0.12255351
vn -0.70575756 -0.70845344 1.4747650e-16
vn -0.69503551 -0.70845344 -0.12255351
vn -0.66319517 -0.70845344 -0.24138330
vn -0.61120397 -0.70845344 -0.35287878
vn -0.54064165 -0.70845344 -0.45365221
vn -0.45365221 -0.70845344 -0.54064165
vn -0.35287878 -0.70845344 -0.61120397
vn -0.24138330 -0.70845344 -0.66319517
vn -0.12255351 -0.70845344 -0.69503551
vn -2.3104651e-16 -0.70845344 -0.70575756
vn 0.12255351 -0.70845344 -0.69503551
vn 0.24138330 -0.70845344 -0.66319517
vn 0.35287878 -0.70845344 -0.61120397
vn 0.45365221 -0.70845344 -0.54064165
vn 0.54064165 -0.70845344 -0.45365221
vn 0.61120397 -0.70845344 -0.35287878
vn 0.66319517 -0.70845344 -0.24138330
vn 0.69503551 -0.70845344 -0.12255351
vn -0.70575756 0.70845344 0.0000000e+0
vn -0.69503551 0.70845344 -0.12255351
vn -0.66319517 0.70845344 -0.24138330
vn -0.61120397 0.70845344 -0.35287878
vn -0.54064165 0.70845344 -0.45365221
vn -0.45365221 0.70845344 -0.54064165
vn -0.35287878 0.70845344 -0.61120397
vn -0.24138330 0.70845344 -0.66319517
vn -0.12255351 0.70845344 -0.69503551
vn -1.4747650e-17 0.70845344 -0.70575756
vn 0.12255351 0.70845344 -0.69503551
vn 0.24138330 0.70845344 -0.66319517
vn 0.35287878 0.70845344 -0.61120397
vn 0.45365221 0.70845344 -0.54064165
vn 0.54064165 0.70845344 -0.45365221
vn 0.61120397 0.70845344 -0.35287878
vn 0.66319517 0.70845344 -0.24138330
vn 0.69503551 0.70845344 -0.12255351
vn 0.70575756 0.70845344 -1.8188768e-16
vn 0.69503551 0.70845344 0.12255351
vn 0.66319517 0.70845344 0.24138330
vn 0.61120397 0.70845344 0.35287878
vn 0.54064165 0.70845344 0.45365221
vn 0.45365221 0.70845344 0.54064165
vn 0.35287878 0.70845344 0.61120397
vn 0.24138330 0.70845344 0.66319517
vn 0.12255351 0.70845344 0.69503551
vn 2.5562593e-16 0.70845344 0.70575756
vn -0.12255351 0.70845344 0.69503551
vn -0.24138330 0.70845344 0.66319517
vn -0.35287878 0.70845344 0.61120397
vn -0.45365221 0.70845344 0.54064165
vn -0.54064165 0.70845344 0.45365221
vn -0.61120397 0.70845344 0.35287878
vn -0.66319517 0.70845344 0.24138330
vn -0.69503551 0.70845344 0.12255351
vn -0.70575756 -0.70845344 0.0000000e+0
vn -0.69503551 -0.70845344 -0.12255351
vn -0.66319517 -0.70845344 -0.24138330
vn -0.61120397 -0.70845344 -0.35287878
vn -0.54064165 -0.70845344 -0.45365221
vn -0.45365221 -0.70845344 -0.54064165
vn -0.35287878 -0.70845344 -0.61120397
vn -0.24138330 -0.70845344 -0.66319517
vn -0.12255351 -0.70845344 -0.69503551
vn -1.4747650e-17 -0.70845344 -0.70575756
vn 0.12255351 -0.70845344 -0.69503551
vn 0.24138330 -0.70845344 -0.66319517
vn 0.35287878 -0.70845344 -0.61120397
vn 0.45365221 -0.70845344 -0.54064165
vn 0.54064165 -0.70845344 -0.45365221
vn 0.61120397 -0.70845344 -0.35287878
vn 0.66319517 -0.70845344 -0.24138330
vn 0.69503551 -0.70845344 -0.12255351
vn 0.70575756 -0.70845344 -1.8188768e-16
vn 0.69503551 -0.70845344 0.12255351
vn 0.66319517 -0.70845344 0.24138330
vn 0.61120397 -0.70845344 0.35287878
vn 0.54064165 -0.70845344 0.45365221
vn 0.45365221 -0.70845344 0.54064165
vn 0.35287878 -0.70845344 0.61120397
vn 0.24138330 -0.70845344 0.66319517
vn 0.12255351 -0.70845344 0.69503551
vn 2.5562593e-16 -0.70845344 0.70575756
vn -0.12255351 -0.70845344 0.69503551
vn -0.24138330 -0.70845344 0.66319517
vn -0.35287878 -0.70845344 0.61120397
vn -0.45365221 -0.70845344 0.54064165
vn -0.54064165 -0.70845344 0.45365221
vn -0.61120397 -0.70845344 0.35287878
vn -0.66319517 -0.70845344 0.24138330
vn -0.69503551 -0.70845344 0.12255351
g Cylinder1_default
usemtl default
s 1
f 1//1 37//37 72//72 36//36
f 1//1 73//73 74//74 2//2
f 2//2 38//38 37//37 1//1
f 2//2 74//74 75//75 3//3
f 3//3 39//39 38//38 2//2
f 3//3 75//75 76//76 4//4
f 4//4 40//40 39//39 3//3
f 4//4 76//76 77//77 5//5
f 5//5 41//41 40//40 4//4
f 5//5 77//77 78//78 6//6
f 6//6 42//42 41//41 5//5
f 6//6 78//78 79//79 7//7
f 7//7 43//43 42//42 6//6
f 7//7 79//79 80//80 8//8
f 8//8 44//44 43//43 7//7
f 8//8 80//80 81//81 9//9
f 9//9 45//45 44//44 8//8
f 9//9 81//81 82//82 10//10
f 10//10 46//46 45//45 9//9
f 10//10 82//82 83//83 11//11
f 11//11 47//47 46//46 10//10
f 11//11 83//83 84//84 12//12
f 12//12 48//48 47//47 11//11
f 12//12 84//84 85//85 13//13
f 13//13 49//49 48//48 12//12
f 13//13 85//85 86//86 14//14
f 14//14 50//50 49//49 13//13
f 14//14 86//86 87//87 15//15
f 15//15 51//51 50//50 14//14
f 15//15 87//87 88//88 16//16
f 16//16 52//52 51//51 15//15
f 16//16 88//88 89//89 17//17
f 17//17 53//53 52//52 16//16
f 17//17 89//89 90//90 18//18
f 18//18 54//54 53//53 17//17
f 18//18 90//90 91//91 19//19
f 19//19 55//55 54//54 18//18
f 19//19 91//91 92//92 20//20
f 20//20 56//56 55//55 19//19
f 20//20 92//92 93//93 21//21
f 21//21 57//57 56//56 20//20
f 21//21 93//93 94//94 22//22
f 22//22 58//58 57//57 21//21
f 22//22 94//94 95//95 23//23
f 23//23 59//59 58//58 22//22
f 23//23 95//95 96//96 24//24
f 24//24 60//60 59//59 23//23
f 24//24 96//96 97//97 25//25
f 25//25 61//61 60//60 24//24
f 25//25 97//97 98//98 26//26
f 26//26 62//62 61//61 25//25
f 26//26 98//98 99//99 27//27
f 27//27 63//63 62//62 26//26
f 27//27 99//99 100//100 28//28
f 28//28 64//64 63//63 27//27
f 28//28 100//100 101//101 29//29
f 29//29 65//65 64//64 28//28
f 29//29 101//101 102//102 30//30
f 30//30 66//66 65//65 29//29
f 30//30 102//102 103//103 31//31
f 31//31 67//67 66//66 30//30
f 31//31 103//103 104//104 32//32
f 32//32 68//68 67//67 31//31
f 32//32 104//104 105//105 33//33
f 33//33 69//69 68//68 32//32
f 33//33 105//105 106//106 34//34
f 34//34 70//70 69//69 33//33
f 34//34 106//106 107//107 35//35
f 35//35 71//71 70//70 34//34
f 35//35 107//107 108//108 36//36
f 36//36 72//72 71//71 35//35
f 36//36 108//108 73//73 1//1
f 37//37 109//109 144//144 72//72
f 38//38 110//110 109//109 37//37
f 39//39 111//111 110//110 38//38
f 40//40 112//112 111//111 39//39
f 41//41 113//113 112//112 40//40
f 42//42 114//114 113//113 41//41
f 43//43 115//115 114//114 42//42
f 44//44 116//116 115//115 43//43
f 45//45 117//117 116//116 44//44
f 46//46 118//118 117//117 45//45
f 47//47 119//119 118//118 46//46
f 48//48 120//120 119//119 47//47
f 49//49 121//121 120//120 48//48
f 50//50 122//122 121//121 49//49
f 51//51 123//123 122//122 50//50
f 52//52 124//124 123//123 51//51
f 53//53 125//125 124//124 52//52
f 54//54 126//126 125//125 53//53
f 55//55 127//127 126//126 54//54
f 56//56 128//128 127//127 55//55
f 57//57 129//129 128//128 56//56
f 58//58 130//130 129//129 57//57
f 59//59 131//131 130//130 58//58
f 60//60 132//132 131//131 59//59
f 61//61 133//133 132//132 60//60
f 62//62 134//134 133//133 61//61
f 63//63 135//135 134//134 62//62
f 64//64 136//136 135//135 63//63
f 65//65 137//137 136//136 64//64
f 66//66 138//138 137//137 65//65
f 67//67 139//139 138//138 66//66
f 68//68 140//140 139//139 67//67
f 69//69 141//141 140//140 68//68
f 70//70 142//142 141//141 69//69
f 71//71 143//143 142//142 70//70
f 72//72 144//144 143//143 71//71
f 73//73 109//109 110//110 74//74
f 74//74 110//110 111//111 75//75
f 75//75 111//111 112//112 76//76
f 76//76 112//112 113//113 77//77
f 77//77 113//113 114//114 78//78
f 78//78 114//114 115//115 79//79
f 79//79 115//115 116//116 80//80
f 80//80 116//116 117//117 81//81
f 81//81 117//117 118//118 82//82
f 82//82 118//118 119//119 83//83
f 83//83 119//119 120//120 84//84
f 84//84 120//120 121//121 85//85
f 85//85 121//121 122//122 86//86
f 86//86 122//122 123//123 87//87
f 87//87 123//123 124//124 88//88
f 88//88 124//124 125//125 89//89
f 89//89 125//125 126//126 90//90
f 90//90 126//126 127//127 91//91
f 91//91 127//127 128//128 92//92
f 92//92 128//128 129//129 93//93
f 93//93 129//129 130//130 94//94
f 94//94 130//130 131//131 95//95
f 95//95 131//131 132//132 96//96
f 96//96 132//132 133//133 97//97
f 97//97 133//133 134//134 98//98
f 98//98 134//134 135//135 99//99
f 99//99 135//135 136//136 100//100
f 100//100 136//136 137//137 101//101
f 101//101 137//137 138//138 102//102
f 102//102 138//138 139//139 103//103
f 103//103 139//139 140//140 104//104
f 104//104 140//140 141//141 105//105
f 105//105 141//141 142//142 106//106
f 106//106 142//142 143//143 107//107
f 107//107 143//143 144//144 108//108
f 108//108 144//144 109//109 73//73
